<svg width="45" height="45" viewBox="0 0 45 45" fill="none" xmlns="http://www.w3.org/2000/svg">
<rect x="6.10352e-05" y="4.57764e-05" width="44.2905" height="44.2905" rx="20" fill="#5BD7A9"/>
<path d="M12.3453 12.8461H34.9996L32.1678 25.5716H15.1771M32.1678 29.4872H16.121L11.4014 8.9305H8.56958M32.1678 33.4027C32.1678 34.484 31.3226 35.3605 30.2799 35.3605C29.2373 35.3605 28.3921 34.484 28.3921 33.4027C28.3921 32.3215 29.2373 31.445 30.2799 31.445C31.3226 31.445 32.1678 32.3215 32.1678 33.4027ZM19.8967 33.4027C19.8967 34.484 19.0515 35.3605 18.0089 35.3605C16.9662 35.3605 16.121 34.484 16.121 33.4027C16.121 32.3215 16.9662 31.445 18.0089 31.445C19.0515 31.445 19.8967 32.3215 19.8967 33.4027Z" stroke="#378D6D" stroke-width="1.7" stroke-linecap="round" stroke-linejoin="round"/>
</svg>
